<mxfile host="app.diagrams.net" modified="2023-10-10T11:47:25.776Z" agent="Mozilla/5.0 (Windows NT 10.0; Win64; x64) AppleWebKit/537.36 (KHTML, like Gecko) Chrome/117.0.0.0 Safari/537.36" version="22.0.4" etag="Z1bXC7pybrN2CvdyPmVj" type="github">
  <diagram name="Page-1" id="07KBWzmafpY8R3yVk5Tg">
    <mxGraphModel>
      <root>
        <mxCell id="0" />
        <mxCell id="1" parent="0" />
      </root>
    </mxGraphModel>
  </diagram>
</mxfile>
